<svg width="26" height="24" viewBox="0 0 26 24" fill="none" xmlns="http://www.w3.org/2000/svg">
<ellipse cx="12.5902" cy="12" rx="12.5902" ry="12" fill="#FFE400"/>
<path d="M9.49333 7.91676C9.49316 8.22618 9.36405 8.52287 9.13438 8.74155C8.90471 8.96023 8.59331 9.083 8.26867 9.08285C7.94403 9.08269 7.63276 8.95963 7.40332 8.74072C7.17388 8.52182 7.04508 8.22501 7.04524 7.9156C7.0454 7.60618 7.17452 7.30949 7.40419 7.09081C7.63385 6.87213 7.94526 6.74936 8.26989 6.74951C8.59453 6.74967 8.90581 6.87273 9.13524 7.09163C9.36468 7.31053 9.49349 7.60734 9.49333 7.91676ZM9.53005 9.94676H7.08196V17.2501H9.53005V9.94676ZM13.398 9.94676H10.9622V17.2501H13.3735V13.4176C13.3735 11.2826 16.2929 11.0843 16.2929 13.4176V17.2501H18.7104V12.6243C18.7104 9.0251 14.3895 9.15926 13.3735 10.9268L13.398 9.94676Z" fill="#272727"/>
</svg>
