<svg width="26" height="24" viewBox="0 0 26 24" fill="none" xmlns="http://www.w3.org/2000/svg">
<ellipse cx="12.8689" cy="12" rx="12.5902" ry="12" fill="#17a398"/>
<g clip-path="url(#clip0_1_92)">
<path d="M18.7094 8.79042C18.9891 9.82992 18.9891 11.9999 18.9891 11.9999C18.9891 11.9999 18.9891 14.1699 18.7094 15.2094C18.5539 15.784 18.0992 16.2361 17.5233 16.3889C16.4773 16.6666 12.8689 16.6666 12.8689 16.6666C12.8689 16.6666 9.26221 16.6666 8.21442 16.3889C7.63606 16.2338 7.18194 15.7823 7.02833 15.2094C6.74863 14.1699 6.74863 11.9999 6.74863 11.9999C6.74863 11.9999 6.74863 9.82992 7.02833 8.79042C7.18378 8.21584 7.63851 7.76375 8.21442 7.61092C9.26221 7.33325 12.8689 7.33325 12.8689 7.33325C12.8689 7.33325 16.4773 7.33325 17.5233 7.61092C18.1016 7.76609 18.5558 8.21759 18.7094 8.79042ZM11.6448 14.0416L15.3169 11.9999L11.6448 9.95825V14.0416Z" fill="#272727"/>
</g>
<defs>
<clipPath id="clip0_1_92">
<rect width="14.6885" height="14" fill="white" transform="translate(5.52459 5)"/>
</clipPath>
</defs>
</svg>
